<svg width="48" height="40" viewBox="0 0 48 40" fill="none" xmlns="http://www.w3.org/2000/svg">
<path d="M36.5617 34.5112C36.5617 37.0951 39.1149 39.1789 42.2808 39.1789C45.4468 39.1789 48 37.0951 48 34.5112C48 32.1774 45.9574 30.2603 43.3021 29.9269V10.6728C43.3021 8.58907 41.2596 6.92204 38.7064 6.92204C36.1532 6.92204 34.1106 8.58907 34.1106 10.6728V23.0922C34.1106 24.3424 32.8851 25.3426 31.3532 25.3426C28.6979 25.3426 26.5532 27.093 26.5532 29.2601V32.9276C26.5532 35.5115 24 37.5952 20.834 37.5952C17.6681 37.5952 15.1149 35.5115 15.1149 32.9276V23.8423C22.366 23.4256 28.0851 18.4245 28.0851 12.4232V3.7547C28.0851 1.67093 26.0426 0.00390625 23.4894 0.00390625V1.67093C24.9191 1.67093 26.0426 2.58779 26.0426 3.7547V12.4232C26.0426 17.841 20.6298 22.2586 13.9915 22.2586C7.35319 22.2586 2.04255 17.7577 2.04255 12.4232V3.7547C2.04255 2.58779 3.16596 1.67093 4.59574 1.67093V0.00390625C2.04255 0.00390625 0 1.67093 0 3.7547V12.4232C0 18.5078 5.71915 23.4256 13.0723 23.8423V32.8442C13.0723 36.345 16.5447 39.1789 20.834 39.1789C25.1234 39.1789 28.5957 36.345 28.5957 32.8442V29.1768C28.5957 27.9265 29.8213 26.9263 31.3532 26.9263C34.0085 26.9263 36.1532 25.1759 36.1532 23.0088V10.6728C36.1532 9.50593 37.2766 8.58907 38.7064 8.58907C40.1362 8.58907 41.2596 9.50593 41.2596 10.6728V29.9269C38.6043 30.2603 36.5617 32.1774 36.5617 34.5112ZM45.9574 34.5112C45.9574 36.1783 44.3234 37.5119 42.2808 37.5119C40.2383 37.5119 38.6043 36.1783 38.6043 34.5112C38.6043 32.8442 40.2383 31.5106 42.2808 31.5106C44.3234 31.5106 45.9574 32.8442 45.9574 34.5112Z" fill="#C49844"/>
<path d="M40.8516 34.5116C40.8516 35.1785 41.4643 35.6786 42.2814 35.6786C43.0984 35.6786 43.7111 35.1785 43.7111 34.5116C43.7111 33.8448 43.0984 33.3447 42.2814 33.3447C41.4643 33.3447 40.8516 33.8448 40.8516 34.5116Z" fill="#D6A750"/>
</svg>
