<svg width="37" height="40" viewBox="0 0 37 40" fill="none" xmlns="http://www.w3.org/2000/svg">
<path d="M35.9058 0.00488281H11.0982C10.925 0.00488281 10.759 0.0736632 10.6365 0.196093C10.5141 0.318523 10.4453 0.484574 10.4453 0.657716V5.88038H5.22267C5.04952 5.88038 4.88347 5.94916 4.76104 6.07159C4.63861 6.19402 4.56983 6.36007 4.56983 6.53322V31.3409H0.652833C0.479691 31.3409 0.313641 31.4097 0.191211 31.5321C0.0687806 31.6545 0 31.8206 0 31.9937V34.605C0.0013478 35.8166 0.483244 36.9782 1.33996 37.8349C2.19668 38.6916 3.35825 39.1735 4.56983 39.1749H27.419C28.2844 39.1739 29.1141 38.8296 29.726 38.2177C30.3379 37.6058 30.6821 36.7761 30.6832 35.9107V33.2994H35.9058C36.079 33.2994 36.245 33.2306 36.3675 33.1082C36.4899 32.9857 36.5587 32.8197 36.5587 32.6465V0.657716C36.5587 0.484574 36.4899 0.318523 36.3675 0.196093C36.245 0.0736632 36.079 0.00488281 35.9058 0.00488281ZM4.56983 37.8692C3.70444 37.8682 2.87477 37.524 2.26285 36.912C1.65092 36.3001 1.30669 35.4704 1.30567 34.605V32.6465H24.1548V35.9107C24.1563 36.1139 24.1767 36.3164 24.216 36.5158C24.2279 36.5789 24.247 36.6386 24.2625 36.7003C24.2945 36.8316 24.3347 36.9608 24.3829 37.0871C24.409 37.1535 24.4371 37.2177 24.4671 37.2818C24.5218 37.3985 24.5834 37.5119 24.6515 37.6213C24.6868 37.6781 24.7201 37.7353 24.7586 37.7897C24.7768 37.8154 24.7904 37.8442 24.8092 37.8693L4.56983 37.8692ZM29.3775 35.9107C29.3775 36.4301 29.1712 36.9283 28.8039 37.2956C28.4366 37.6629 27.9384 37.8692 27.419 37.8692C26.8996 37.8692 26.4014 37.6629 26.0341 37.2956C25.6668 36.9283 25.4605 36.4301 25.4605 35.9107V31.9937C25.4605 31.8206 25.3917 31.6545 25.2693 31.5321C25.1469 31.4097 24.9808 31.3409 24.8077 31.3409H5.8755V7.18605H29.3775V35.9107ZM35.253 31.9937H30.6832V6.53322C30.6832 6.36007 30.6144 6.19402 30.492 6.07159C30.3695 5.94916 30.2035 5.88038 30.0303 5.88038H11.751V1.31055H35.253V31.9937Z" fill="#C49844"/>
<path d="M24.8081 10.4502H10.4458C10.2727 10.4502 10.1066 10.519 9.98418 10.6414C9.86175 10.7638 9.79297 10.9299 9.79297 11.103V15.02C9.79297 15.1932 9.86175 15.3592 9.98418 15.4817C10.1066 15.6041 10.2727 15.6729 10.4458 15.6729H24.8081C24.9813 15.6729 25.1473 15.6041 25.2698 15.4817C25.3922 15.3592 25.461 15.1932 25.461 15.02V11.103C25.461 10.9299 25.3922 10.7638 25.2698 10.6414C25.1473 10.519 24.9813 10.4502 24.8081 10.4502ZM24.1553 14.3672H11.0986V11.7559H24.1553V14.3672ZM24.8081 18.2842H13.0571C12.884 18.2842 12.7179 18.353 12.5955 18.4754C12.4731 18.5978 12.4043 18.7639 12.4043 18.937C12.4043 19.1102 12.4731 19.2762 12.5955 19.3987C12.7179 19.5211 12.884 19.5899 13.0571 19.5899H24.8081C24.9813 19.5899 25.1473 19.5211 25.2698 19.3987C25.3922 19.2762 25.461 19.1102 25.461 18.937C25.461 18.7639 25.3922 18.5978 25.2698 18.4754C25.1473 18.353 24.9813 18.2842 24.8081 18.2842ZM24.8081 22.2012H10.4458C10.2727 22.2012 10.1066 22.27 9.98418 22.3924C9.86175 22.5148 9.79297 22.6809 9.79297 22.854C9.79297 23.0272 9.86175 23.1932 9.98418 23.3157C10.1066 23.4381 10.2727 23.5069 10.4458 23.5069H24.8081C24.9813 23.5069 25.1473 23.4381 25.2698 23.3157C25.3922 23.1932 25.461 23.0272 25.461 22.854C25.461 22.6809 25.3922 22.5148 25.2698 22.3924C25.1473 22.27 24.9813 22.2012 24.8081 22.2012ZM24.8081 26.1182H10.4458C10.2727 26.1182 10.1066 26.187 9.98418 26.3094C9.86175 26.4318 9.79297 26.5979 9.79297 26.771C9.79297 26.9442 9.86175 27.1102 9.98418 27.2327C10.1066 27.3551 10.2727 27.4239 10.4458 27.4239H24.8081C24.9813 27.4239 25.1473 27.3551 25.2698 27.2327C25.3922 27.1102 25.461 26.9442 25.461 26.771C25.461 26.5979 25.3922 26.4318 25.2698 26.3094C25.1473 26.187 24.9813 26.1182 24.8081 26.1182Z" fill="#C49844"/>
</svg>
